<mxfile host="65bd71144e">
    <diagram id="IEW-mn_oZvRqsmiT2Y3r" name="Page-1">
        <mxGraphModel dx="434" dy="1378" grid="1" gridSize="10" guides="1" tooltips="1" connect="1" arrows="1" fold="1" page="1" pageScale="1" pageWidth="850" pageHeight="1100" math="0" shadow="0">
            <root>
                <mxCell id="0"/>
                <mxCell id="1" parent="0"/>
                <mxCell id="4" value="" style="edgeStyle=none;html=1;" parent="1" source="2" target="3" edge="1">
                    <mxGeometry relative="1" as="geometry"/>
                </mxCell>
                <mxCell id="2" value="เริ่ม" style="ellipse;whiteSpace=wrap;html=1;" parent="1" vertex="1">
                    <mxGeometry x="285.62" y="-10" width="105" height="40" as="geometry"/>
                </mxCell>
                <mxCell id="6" value="" style="edgeStyle=none;html=1;entryX=0.5;entryY=0;entryDx=0;entryDy=0;" parent="1" source="3" target="9" edge="1">
                    <mxGeometry relative="1" as="geometry">
                        <mxPoint x="336.8125" y="160" as="targetPoint"/>
                    </mxGeometry>
                </mxCell>
                <mxCell id="3" value="level←0,&lt;span style=&quot;color: rgb(0, 0, 0);&quot;&gt;money←&lt;/span&gt;&lt;span style=&quot;background-color: transparent; color: rgb(0, 0, 0);&quot;&gt;0&lt;/span&gt;&lt;span style=&quot;color: rgb(0, 0, 0);&quot;&gt;,&lt;/span&gt;&lt;div&gt;&lt;span style=&quot;color: rgb(0, 0, 0);&quot;&gt;s&lt;/span&gt;&lt;span style=&quot;color: rgb(63, 63, 63); font-size: 13px; text-align: left; background-color: rgb(248, 249, 250);&quot;&gt;bonus←0&lt;/span&gt;&lt;div&gt;&lt;span style=&quot;background-color: transparent; color: rgb(0, 0, 0);&quot;&gt;,&lt;/span&gt;&lt;span style=&quot;background-color: transparent; color: rgb(0, 0, 0);&quot;&gt;project←0,&lt;/span&gt;&lt;span style=&quot;color: rgb(63, 63, 63); background-color: rgb(248, 249, 250); font-family: inherit; text-align: left;&quot;&gt;&lt;font style=&quot;font-size: 13px;&quot;&gt;age←0,&lt;/font&gt;&lt;/span&gt;&lt;/div&gt;&lt;div&gt;&lt;span style=&quot;color: rgb(63, 63, 63); background-color: rgb(248, 249, 250); font-family: inherit; text-align: left;&quot;&gt;&lt;font style=&quot;font-size: 13px;&quot;&gt;bonus←0,&lt;/font&gt;&lt;/span&gt;&lt;span style=&quot;color: rgb(63, 63, 63); font-size: 13px; background-color: light-dark(rgb(248, 249, 250), rgb(22, 23, 24)); font-family: inherit; text-align: left;&quot;&gt;sum←0&lt;/span&gt;&lt;/div&gt;&lt;/div&gt;" style="whiteSpace=wrap;html=1;" parent="1" vertex="1">
                    <mxGeometry x="278.12" y="60" width="120" height="80" as="geometry"/>
                </mxCell>
                <mxCell id="12" value="" style="edgeStyle=none;html=1;" parent="1" source="9" target="11" edge="1">
                    <mxGeometry relative="1" as="geometry"/>
                </mxCell>
                <mxCell id="9" value="แสดง&lt;div&gt;เลือกตำแหน่ง&lt;/div&gt;" style="shape=parallelogram;perimeter=parallelogramPerimeter;whiteSpace=wrap;html=1;fixedSize=1;" parent="1" vertex="1">
                    <mxGeometry x="281.87" y="160" width="112.5" height="30" as="geometry"/>
                </mxCell>
                <mxCell id="21" value="" style="edgeStyle=none;html=1;" parent="1" source="11" target="13" edge="1">
                    <mxGeometry relative="1" as="geometry"/>
                </mxCell>
                <mxCell id="11" value="แสดง&lt;div&gt;กรอกอายุงาน&lt;/div&gt;" style="shape=parallelogram;perimeter=parallelogramPerimeter;whiteSpace=wrap;html=1;fixedSize=1;" parent="1" vertex="1">
                    <mxGeometry x="280" y="210" width="112.5" height="30" as="geometry"/>
                </mxCell>
                <mxCell id="16" value="" style="edgeStyle=none;html=1;" parent="1" source="13" target="15" edge="1">
                    <mxGeometry relative="1" as="geometry"/>
                </mxCell>
                <mxCell id="13" value="แสดง&lt;div&gt;กรอกจำโปรเจก&lt;span style=&quot;color: rgb(63, 63, 63); background-color: transparent;&quot;&gt;ที่สำเร็จ&lt;/span&gt;&lt;/div&gt;" style="shape=parallelogram;perimeter=parallelogramPerimeter;whiteSpace=wrap;html=1;fixedSize=1;" parent="1" vertex="1">
                    <mxGeometry x="260" y="260" width="152.5" height="30" as="geometry"/>
                </mxCell>
                <mxCell id="18" value="" style="edgeStyle=none;html=1;entryX=0.5;entryY=0;entryDx=0;entryDy=0;" parent="1" source="15" target="19" edge="1">
                    <mxGeometry relative="1" as="geometry">
                        <mxPoint x="332.5" y="360" as="targetPoint"/>
                    </mxGeometry>
                </mxCell>
                <mxCell id="15" value="นำเข้าlevel" style="shape=parallelogram;perimeter=parallelogramPerimeter;whiteSpace=wrap;html=1;fixedSize=1;" parent="1" vertex="1">
                    <mxGeometry x="280" y="310" width="112.5" height="30" as="geometry"/>
                </mxCell>
                <mxCell id="25" value="" style="edgeStyle=orthogonalEdgeStyle;html=1;rounded=0;exitX=0.5;exitY=1;exitDx=0;exitDy=0;" parent="1" source="19" target="24" edge="1">
                    <mxGeometry relative="1" as="geometry"/>
                </mxCell>
                <mxCell id="19" value="นำเข้าproject" style="shape=parallelogram;perimeter=parallelogramPerimeter;whiteSpace=wrap;html=1;fixedSize=1;" parent="1" vertex="1">
                    <mxGeometry x="280" y="360" width="112.5" height="30" as="geometry"/>
                </mxCell>
                <mxCell id="27" value="" style="edgeStyle=orthogonalEdgeStyle;html=1;rounded=0;entryX=0.5;entryY=0;entryDx=0;entryDy=0;exitX=1;exitY=0.5;exitDx=0;exitDy=0;" parent="1" source="24" target="26" edge="1">
                    <mxGeometry relative="1" as="geometry">
                        <mxPoint x="354.3176470588237" y="489.9958477508651" as="sourcePoint"/>
                        <mxPoint x="460.6705882352944" y="480.05397923875444" as="targetPoint"/>
                    </mxGeometry>
                </mxCell>
                <mxCell id="31" value="ไม่" style="edgeLabel;html=1;align=center;verticalAlign=middle;resizable=0;points=[];" parent="27" vertex="1" connectable="0">
                    <mxGeometry x="-0.2495" y="2" relative="1" as="geometry">
                        <mxPoint as="offset"/>
                    </mxGeometry>
                </mxCell>
                <mxCell id="39" value="" style="edgeStyle=orthogonalEdgeStyle;html=1;rounded=0;curved=0;entryX=0.5;entryY=0;entryDx=0;entryDy=0;" parent="1" source="24" target="79" edge="1">
                    <mxGeometry relative="1" as="geometry">
                        <mxPoint x="88.32" y="560" as="targetPoint"/>
                    </mxGeometry>
                </mxCell>
                <mxCell id="44" value="ใช่" style="edgeLabel;html=1;align=center;verticalAlign=middle;resizable=0;points=[];" parent="39" vertex="1" connectable="0">
                    <mxGeometry x="-0.4799" y="1" relative="1" as="geometry">
                        <mxPoint as="offset"/>
                    </mxGeometry>
                </mxCell>
                <mxCell id="24" value="level=1หรือไม่" style="rhombus;whiteSpace=wrap;html=1;" parent="1" vertex="1">
                    <mxGeometry x="225.31999999999994" y="420" width="106.25" height="60" as="geometry"/>
                </mxCell>
                <mxCell id="30" value="" style="edgeStyle=orthogonalEdgeStyle;html=1;rounded=0;curved=0;entryX=0.5;entryY=0;entryDx=0;entryDy=0;exitX=1;exitY=0.5;exitDx=0;exitDy=0;" parent="1" source="26" target="28" edge="1">
                    <mxGeometry relative="1" as="geometry">
                        <mxPoint x="600.9449999999999" y="540" as="targetPoint"/>
                    </mxGeometry>
                </mxCell>
                <mxCell id="32" value="ไม่" style="edgeLabel;html=1;align=center;verticalAlign=middle;resizable=0;points=[];" parent="30" vertex="1" connectable="0">
                    <mxGeometry x="-0.3315" relative="1" as="geometry">
                        <mxPoint as="offset"/>
                    </mxGeometry>
                </mxCell>
                <mxCell id="60" value="" style="edgeStyle=orthogonalEdgeStyle;html=1;entryX=0.5;entryY=0;entryDx=0;entryDy=0;rounded=0;" parent="1" source="26" target="85" edge="1">
                    <mxGeometry relative="1" as="geometry">
                        <mxPoint x="308.45000000000005" y="555" as="targetPoint"/>
                        <Array as="points">
                            <mxPoint x="307.31999999999994" y="500"/>
                            <mxPoint x="307.31999999999994" y="550"/>
                        </Array>
                    </mxGeometry>
                </mxCell>
                <mxCell id="62" value="ใช่" style="edgeLabel;html=1;align=center;verticalAlign=middle;resizable=0;points=[];" parent="60" vertex="1" connectable="0">
                    <mxGeometry x="-0.6389" y="-1" relative="1" as="geometry">
                        <mxPoint as="offset"/>
                    </mxGeometry>
                </mxCell>
                <mxCell id="26" value="level=2หรือไม่" style="rhombus;whiteSpace=wrap;html=1;" parent="1" vertex="1">
                    <mxGeometry x="375.31999999999994" y="470" width="106.25" height="60" as="geometry"/>
                </mxCell>
                <mxCell id="34" value="" style="edgeStyle=orthogonalEdgeStyle;html=1;rounded=0;curved=0;entryX=0.5;entryY=0;entryDx=0;entryDy=0;" parent="1" source="28" target="119" edge="1">
                    <mxGeometry relative="1" as="geometry">
                        <mxPoint x="885.3199999999999" y="550" as="targetPoint"/>
                        <Array as="points">
                            <mxPoint x="826" y="550"/>
                        </Array>
                    </mxGeometry>
                </mxCell>
                <mxCell id="35" value="ไม่" style="edgeLabel;html=1;align=center;verticalAlign=middle;resizable=0;points=[];" parent="34" vertex="1" connectable="0">
                    <mxGeometry x="-0.1153" y="1" relative="1" as="geometry">
                        <mxPoint x="18" y="1" as="offset"/>
                    </mxGeometry>
                </mxCell>
                <mxCell id="61" value="" style="edgeStyle=orthogonalEdgeStyle;html=1;entryX=0.5;entryY=0;entryDx=0;entryDy=0;rounded=0;exitX=0;exitY=0.5;exitDx=0;exitDy=0;" parent="1" source="28" target="86" edge="1">
                    <mxGeometry relative="1" as="geometry">
                        <mxPoint x="529.0800000000002" y="570" as="targetPoint"/>
                    </mxGeometry>
                </mxCell>
                <mxCell id="63" value="ใช่" style="edgeLabel;html=1;align=center;verticalAlign=middle;resizable=0;points=[];" parent="61" vertex="1" connectable="0">
                    <mxGeometry x="-0.4667" y="3" relative="1" as="geometry">
                        <mxPoint as="offset"/>
                    </mxGeometry>
                </mxCell>
                <mxCell id="28" value="level=3หรือไม่" style="rhombus;whiteSpace=wrap;html=1;" parent="1" vertex="1">
                    <mxGeometry x="609.9999999999999" y="520" width="106.25" height="60" as="geometry"/>
                </mxCell>
                <mxCell id="42" value="" style="edgeStyle=orthogonalEdgeStyle;html=1;entryX=0.5;entryY=0;entryDx=0;entryDy=0;rounded=0;curved=0;" parent="1" source="38" target="40" edge="1">
                    <mxGeometry relative="1" as="geometry"/>
                </mxCell>
                <mxCell id="96" value="" style="edgeStyle=none;html=1;" parent="1" source="38" target="92" edge="1">
                    <mxGeometry relative="1" as="geometry"/>
                </mxCell>
                <mxCell id="38" value="age&amp;lt;1หรือไม่" style="rhombus;whiteSpace=wrap;html=1;" parent="1" vertex="1">
                    <mxGeometry x="112.48000000000002" y="710" width="106.25" height="60" as="geometry"/>
                </mxCell>
                <mxCell id="43" value="" style="edgeStyle=orthogonalEdgeStyle;html=1;entryX=0.5;entryY=0;entryDx=0;entryDy=0;rounded=0;curved=0;" parent="1" source="40" target="41" edge="1">
                    <mxGeometry relative="1" as="geometry">
                        <Array as="points">
                            <mxPoint x="415.72" y="790"/>
                        </Array>
                    </mxGeometry>
                </mxCell>
                <mxCell id="97" value="" style="edgeStyle=none;html=1;entryX=0.5;entryY=0;entryDx=0;entryDy=0;" parent="1" source="40" target="100" edge="1">
                    <mxGeometry relative="1" as="geometry">
                        <mxPoint x="307.02" y="850" as="targetPoint"/>
                    </mxGeometry>
                </mxCell>
                <mxCell id="40" value="age&amp;lt;=3หรือไม่" style="rhombus;whiteSpace=wrap;html=1;" parent="1" vertex="1">
                    <mxGeometry x="250" y="760" width="106.25" height="60" as="geometry"/>
                </mxCell>
                <mxCell id="70" value="" style="edgeStyle=orthogonalEdgeStyle;html=1;entryX=0.5;entryY=0;entryDx=0;entryDy=0;rounded=0;exitX=1;exitY=0.5;exitDx=0;exitDy=0;" parent="1" source="41" target="72" edge="1">
                    <mxGeometry relative="1" as="geometry">
                        <mxPoint x="481.55000000000007" y="870" as="targetPoint"/>
                    </mxGeometry>
                </mxCell>
                <mxCell id="98" value="" style="edgeStyle=none;html=1;entryX=0.5;entryY=0;entryDx=0;entryDy=0;" parent="1" source="41" target="102" edge="1">
                    <mxGeometry relative="1" as="geometry">
                        <mxPoint x="414.9567647058825" y="910" as="targetPoint"/>
                    </mxGeometry>
                </mxCell>
                <mxCell id="41" value="age&amp;lt;=5หรือไม่" style="rhombus;whiteSpace=wrap;html=1;" parent="1" vertex="1">
                    <mxGeometry x="362.47" y="810" width="106.25" height="60" as="geometry"/>
                </mxCell>
                <mxCell id="99" value="" style="edgeStyle=none;html=1;entryX=0.5;entryY=0;entryDx=0;entryDy=0;" parent="1" source="72" target="101" edge="1">
                    <mxGeometry relative="1" as="geometry">
                        <mxPoint x="541.2249999999997" y="950" as="targetPoint"/>
                    </mxGeometry>
                </mxCell>
                <mxCell id="72" value="age&amp;gt;=6หรือไม่" style="rhombus;whiteSpace=wrap;html=1;" parent="1" vertex="1">
                    <mxGeometry x="488.72" y="860" width="106.25" height="60" as="geometry"/>
                </mxCell>
                <mxCell id="88" value="" style="edgeStyle=orthogonalEdgeStyle;html=1;entryX=0;entryY=0.5;entryDx=0;entryDy=0;rounded=0;" parent="1" source="79" target="89" edge="1">
                    <mxGeometry relative="1" as="geometry">
                        <mxPoint x="88.44000000000005" y="665" as="targetPoint"/>
                        <Array as="points">
                            <mxPoint x="88" y="650"/>
                        </Array>
                    </mxGeometry>
                </mxCell>
                <mxCell id="79" value="money=money+20000" style="rounded=0;whiteSpace=wrap;html=1;" parent="1" vertex="1">
                    <mxGeometry x="20" y="540" width="136.88" height="30" as="geometry"/>
                </mxCell>
                <mxCell id="82" value="" style="edgeStyle=orthogonalEdgeStyle;html=1;exitX=0.5;exitY=1;exitDx=0;exitDy=0;entryX=0.5;entryY=0;entryDx=0;entryDy=0;rounded=0;curved=0;" parent="1" source="85" target="89" edge="1">
                    <mxGeometry relative="1" as="geometry">
                        <mxPoint x="308.4489285714287" y="585" as="sourcePoint"/>
                        <mxPoint x="307.522308837674" y="610.5210491269606" as="targetPoint"/>
                    </mxGeometry>
                </mxCell>
                <mxCell id="84" value="" style="edgeStyle=orthogonalEdgeStyle;html=1;exitX=0.5;exitY=1;exitDx=0;exitDy=0;entryX=1;entryY=0.5;entryDx=0;entryDy=0;rounded=0;" parent="1" source="86" target="89" edge="1">
                    <mxGeometry relative="1" as="geometry">
                        <mxPoint x="529.0788461538461" y="600" as="sourcePoint"/>
                        <mxPoint x="529.9918971290097" y="620.5177772022641" as="targetPoint"/>
                    </mxGeometry>
                </mxCell>
                <mxCell id="85" value="money=money+35000" style="rounded=0;whiteSpace=wrap;html=1;" parent="1" vertex="1">
                    <mxGeometry x="238.44000000000005" y="560" width="136.88" height="30" as="geometry"/>
                </mxCell>
                <mxCell id="86" value="money=money+50000" style="rounded=0;whiteSpace=wrap;html=1;" parent="1" vertex="1">
                    <mxGeometry x="462.19000000000005" y="570" width="136.88" height="30" as="geometry"/>
                </mxCell>
                <mxCell id="90" value="" style="edgeStyle=orthogonalEdgeStyle;html=1;rounded=0;entryX=0.5;entryY=0;entryDx=0;entryDy=0;" parent="1" source="89" target="38" edge="1">
                    <mxGeometry relative="1" as="geometry">
                        <Array as="points">
                            <mxPoint x="306" y="700"/>
                            <mxPoint x="166" y="700"/>
                        </Array>
                    </mxGeometry>
                </mxCell>
                <mxCell id="89" value="" style="ellipse;whiteSpace=wrap;html=1;aspect=fixed;" parent="1" vertex="1">
                    <mxGeometry x="295.95000000000005" y="640" width="20" height="20" as="geometry"/>
                </mxCell>
                <mxCell id="109" value="" style="edgeStyle=orthogonalEdgeStyle;html=1;rounded=0;entryX=0;entryY=0.5;entryDx=0;entryDy=0;" parent="1" source="92" target="116" edge="1">
                    <mxGeometry relative="1" as="geometry">
                        <mxPoint x="163.9000000000001" y="925" as="targetPoint"/>
                        <Array as="points">
                            <mxPoint x="164" y="1100"/>
                        </Array>
                    </mxGeometry>
                </mxCell>
                <mxCell id="92" value="bonus=0" style="rounded=0;whiteSpace=wrap;html=1;" parent="1" vertex="1">
                    <mxGeometry x="110" y="800" width="107.8" height="30" as="geometry"/>
                </mxCell>
                <mxCell id="111" value="" style="edgeStyle=orthogonalEdgeStyle;html=1;rounded=0;entryX=0.5;entryY=0;entryDx=0;entryDy=0;" parent="1" source="100" target="116" edge="1">
                    <mxGeometry relative="1" as="geometry">
                        <mxPoint x="260" y="1030" as="targetPoint"/>
                        <Array as="points">
                            <mxPoint x="299" y="990"/>
                            <mxPoint x="299" y="990"/>
                        </Array>
                    </mxGeometry>
                </mxCell>
                <mxCell id="100" value="bonus=(money*10)/100" style="rounded=0;whiteSpace=wrap;html=1;" parent="1" vertex="1">
                    <mxGeometry x="248.45000000000005" y="850" width="107.8" height="30" as="geometry"/>
                </mxCell>
                <mxCell id="101" value="bonus=(money*20)/100" style="rounded=0;whiteSpace=wrap;html=1;" parent="1" vertex="1">
                    <mxGeometry x="488.72" y="950" width="107.8" height="30" as="geometry"/>
                </mxCell>
                <mxCell id="113" value="" style="edgeStyle=orthogonalEdgeStyle;html=1;entryX=1;entryY=0;entryDx=0;entryDy=0;rounded=0;" parent="1" source="102" target="116" edge="1">
                    <mxGeometry relative="1" as="geometry">
                        <mxPoint x="414.81999999999994" y="1035" as="targetPoint"/>
                        <Array as="points">
                            <mxPoint x="415" y="1093"/>
                        </Array>
                    </mxGeometry>
                </mxCell>
                <mxCell id="102" value="bonus=(money*15)/100" style="rounded=0;whiteSpace=wrap;html=1;" parent="1" vertex="1">
                    <mxGeometry x="360.91999999999996" y="910" width="107.8" height="30" as="geometry"/>
                </mxCell>
                <mxCell id="115" value="" style="edgeStyle=orthogonalEdgeStyle;html=1;rounded=0;entryX=1;entryY=0.5;entryDx=0;entryDy=0;exitX=0.5;exitY=1;exitDx=0;exitDy=0;" parent="1" source="101" target="116" edge="1">
                    <mxGeometry relative="1" as="geometry">
                        <mxPoint x="542.6199999999999" y="1135.0000000000002" as="targetPoint"/>
                        <Array as="points">
                            <mxPoint x="543" y="1100"/>
                        </Array>
                        <mxPoint x="542.7" y="1040" as="sourcePoint"/>
                    </mxGeometry>
                </mxCell>
                <mxCell id="106" value="" style="edgeStyle=orthogonalEdgeStyle;html=1;rounded=0;exitX=1;exitY=0.5;exitDx=0;exitDy=0;entryX=0.5;entryY=0;entryDx=0;entryDy=0;" parent="1" source="72" target="118" edge="1">
                    <mxGeometry relative="1" as="geometry">
                        <mxPoint x="760" y="890" as="targetPoint"/>
                        <mxPoint x="608.26" y="889.6" as="sourcePoint"/>
                    </mxGeometry>
                </mxCell>
                <mxCell id="107" value="ไม่" style="edgeLabel;html=1;align=center;verticalAlign=middle;resizable=0;points=[];" parent="106" vertex="1" connectable="0">
                    <mxGeometry x="-0.1153" y="1" relative="1" as="geometry">
                        <mxPoint x="18" y="1" as="offset"/>
                    </mxGeometry>
                </mxCell>
                <mxCell id="131" value="" style="edgeStyle=none;html=1;" edge="1" parent="1" source="116" target="130">
                    <mxGeometry relative="1" as="geometry"/>
                </mxCell>
                <mxCell id="116" value="" style="ellipse;whiteSpace=wrap;html=1;aspect=fixed;" parent="1" vertex="1">
                    <mxGeometry x="288.75000000000006" y="1090" width="20" height="20" as="geometry"/>
                </mxCell>
                <mxCell id="133" value="" style="edgeStyle=orthogonalEdgeStyle;html=1;rounded=0;entryX=0;entryY=0.5;entryDx=0;entryDy=0;" edge="1" parent="1" source="118" target="120">
                    <mxGeometry relative="1" as="geometry">
                        <mxPoint x="706.25" y="1065" as="targetPoint"/>
                    </mxGeometry>
                </mxCell>
                <mxCell id="118" value="แสดง&lt;div&gt;กรุณากรอกอายุงาน&lt;/div&gt;" style="shape=parallelogram;perimeter=parallelogramPerimeter;whiteSpace=wrap;html=1;fixedSize=1;" parent="1" vertex="1">
                    <mxGeometry x="630" y="940" width="152.5" height="30" as="geometry"/>
                </mxCell>
                <mxCell id="124" value="" style="edgeStyle=orthogonalEdgeStyle;html=1;rounded=0;entryX=1;entryY=0.5;entryDx=0;entryDy=0;" parent="1" source="119" target="120" edge="1">
                    <mxGeometry relative="1" as="geometry">
                        <mxPoint x="826.25" y="725" as="targetPoint"/>
                        <Array as="points">
                            <mxPoint x="826" y="1150"/>
                        </Array>
                    </mxGeometry>
                </mxCell>
                <mxCell id="119" value="แสดง&lt;div&gt;กรุณาเลือกขั้น1-3&lt;/div&gt;" style="shape=parallelogram;perimeter=parallelogramPerimeter;whiteSpace=wrap;html=1;fixedSize=1;" parent="1" vertex="1">
                    <mxGeometry x="750" y="600" width="152.5" height="30" as="geometry"/>
                </mxCell>
                <mxCell id="162" value="" style="edgeStyle=orthogonalEdgeStyle;html=1;rounded=0;" edge="1" parent="1" source="120">
                    <mxGeometry relative="1" as="geometry">
                        <mxPoint x="310" y="1620" as="targetPoint"/>
                        <Array as="points">
                            <mxPoint x="773" y="1620"/>
                        </Array>
                    </mxGeometry>
                </mxCell>
                <mxCell id="120" value="" style="ellipse;whiteSpace=wrap;html=1;aspect=fixed;" parent="1" vertex="1">
                    <mxGeometry x="762.5" y="1140" width="20" height="20" as="geometry"/>
                </mxCell>
                <mxCell id="128" value="จบ" style="ellipse;whiteSpace=wrap;html=1;" parent="1" vertex="1">
                    <mxGeometry x="251.25" y="1630" width="105" height="40" as="geometry"/>
                </mxCell>
                <mxCell id="137" value="" style="edgeStyle=orthogonalEdgeStyle;html=1;rounded=0;entryX=0.5;entryY=0;entryDx=0;entryDy=0;" edge="1" parent="1" source="130" target="143">
                    <mxGeometry relative="1" as="geometry">
                        <mxPoint x="430" y="1205" as="targetPoint"/>
                    </mxGeometry>
                </mxCell>
                <mxCell id="139" value="ไม่" style="edgeLabel;html=1;align=center;verticalAlign=middle;resizable=0;points=[];" vertex="1" connectable="0" parent="137">
                    <mxGeometry x="-0.1974" y="-1" relative="1" as="geometry">
                        <mxPoint as="offset"/>
                    </mxGeometry>
                </mxCell>
                <mxCell id="142" value="" style="edgeStyle=orthogonalEdgeStyle;html=1;entryX=0.5;entryY=0;entryDx=0;entryDy=0;rounded=0;" edge="1" parent="1" source="130" target="140">
                    <mxGeometry relative="1" as="geometry">
                        <mxPoint x="127.505" y="1205" as="targetPoint"/>
                        <Array as="points">
                            <mxPoint x="215" y="1205"/>
                            <mxPoint x="215" y="1250"/>
                        </Array>
                    </mxGeometry>
                </mxCell>
                <mxCell id="144" value="ใช่" style="edgeLabel;html=1;align=center;verticalAlign=middle;resizable=0;points=[];" vertex="1" connectable="0" parent="142">
                    <mxGeometry x="-0.5735" y="1" relative="1" as="geometry">
                        <mxPoint as="offset"/>
                    </mxGeometry>
                </mxCell>
                <mxCell id="130" value="project&amp;gt;5&lt;div&gt;หรือไม่&lt;/div&gt;" style="rhombus;whiteSpace=wrap;html=1;" vertex="1" parent="1">
                    <mxGeometry x="253.13" y="1160" width="91.25" height="90" as="geometry"/>
                </mxCell>
                <mxCell id="153" value="" style="edgeStyle=orthogonalEdgeStyle;html=1;rounded=0;entryX=0;entryY=0.5;entryDx=0;entryDy=0;" edge="1" parent="1" source="140" target="154">
                    <mxGeometry relative="1" as="geometry">
                        <mxPoint x="215.30999999999995" y="1385" as="targetPoint"/>
                        <Array as="points">
                            <mxPoint x="215" y="1380"/>
                        </Array>
                    </mxGeometry>
                </mxCell>
                <mxCell id="140" value="sbonus=((money+bonus)*5)/100" style="rounded=0;whiteSpace=wrap;html=1;" vertex="1" parent="1">
                    <mxGeometry x="148.75" y="1260" width="133.12" height="30" as="geometry"/>
                </mxCell>
                <mxCell id="146" value="" style="edgeStyle=orthogonalEdgeStyle;html=1;rounded=0;entryX=0.5;entryY=1;entryDx=0;entryDy=0;" edge="1" parent="1" source="143" target="149">
                    <mxGeometry relative="1" as="geometry">
                        <mxPoint x="573.125" y="1275" as="targetPoint"/>
                    </mxGeometry>
                </mxCell>
                <mxCell id="148" value="" style="edgeStyle=orthogonalEdgeStyle;html=1;rounded=0;entryX=1;entryY=0.5;entryDx=0;entryDy=0;" edge="1" parent="1" source="143" target="154">
                    <mxGeometry relative="1" as="geometry">
                        <mxPoint x="404.365" y="1390" as="targetPoint"/>
                        <Array as="points">
                            <mxPoint x="400" y="1380"/>
                        </Array>
                    </mxGeometry>
                </mxCell>
                <mxCell id="143" value="project&amp;lt;=5&lt;div&gt;หรือไม่&lt;/div&gt;" style="rhombus;whiteSpace=wrap;html=1;" vertex="1" parent="1">
                    <mxGeometry x="356.25" y="1230" width="91.25" height="90" as="geometry"/>
                </mxCell>
                <mxCell id="151" value="" style="edgeStyle=orthogonalEdgeStyle;html=1;entryX=0;entryY=1;entryDx=0;entryDy=0;rounded=0;curved=0;" edge="1" parent="1" source="149" target="120">
                    <mxGeometry relative="1" as="geometry">
                        <mxPoint x="569.3600000000001" y="1125" as="targetPoint"/>
                        <Array as="points">
                            <mxPoint x="569" y="1157"/>
                        </Array>
                    </mxGeometry>
                </mxCell>
                <mxCell id="149" value="แสดง&lt;div&gt;กรุณากรอกจำนวนproject&lt;/div&gt;" style="shape=parallelogram;perimeter=parallelogramPerimeter;whiteSpace=wrap;html=1;fixedSize=1;" vertex="1" parent="1">
                    <mxGeometry x="488.72" y="1220" width="161.28" height="30" as="geometry"/>
                </mxCell>
                <mxCell id="157" value="" style="edgeStyle=none;html=1;entryX=0.5;entryY=0;entryDx=0;entryDy=0;" edge="1" parent="1" source="154" target="158">
                    <mxGeometry relative="1" as="geometry">
                        <mxPoint x="280" y="1430" as="targetPoint"/>
                    </mxGeometry>
                </mxCell>
                <mxCell id="154" value="" style="ellipse;whiteSpace=wrap;html=1;aspect=fixed;" vertex="1" parent="1">
                    <mxGeometry x="292.35" y="1370" width="20" height="20" as="geometry"/>
                </mxCell>
                <mxCell id="160" value="" style="edgeStyle=none;html=1;" edge="1" parent="1" source="155" target="128">
                    <mxGeometry relative="1" as="geometry"/>
                </mxCell>
                <mxCell id="155" value="แสดง&lt;div&gt;money&lt;/div&gt;&lt;div&gt;bonus&lt;/div&gt;&lt;div&gt;sbonus&lt;/div&gt;&lt;div&gt;sum&lt;/div&gt;" style="shape=parallelogram;perimeter=parallelogramPerimeter;whiteSpace=wrap;html=1;fixedSize=1;" vertex="1" parent="1">
                    <mxGeometry x="222.49" y="1480" width="161.28" height="80" as="geometry"/>
                </mxCell>
                <mxCell id="159" value="" style="edgeStyle=none;html=1;" edge="1" parent="1" source="158" target="155">
                    <mxGeometry relative="1" as="geometry"/>
                </mxCell>
                <mxCell id="158" value="sum=money+bonus&lt;div&gt;+sbonus&lt;/div&gt;" style="rounded=0;whiteSpace=wrap;html=1;" vertex="1" parent="1">
                    <mxGeometry x="235.79" y="1420" width="133.12" height="30" as="geometry"/>
                </mxCell>
            </root>
        </mxGraphModel>
    </diagram>
</mxfile>